<svg width="22" height="23" viewBox="0 0 22 23" fill="none" xmlns="http://www.w3.org/2000/svg">
<path d="M12.1777 10.975C12.8807 9.24604 13.2987 7.4411 13.3937 5.67416C13.438 4.78752 13.4127 3.90722 13.286 3.06491C13.2544 2.83059 13.21 2.6026 13.1657 2.3746C11.4051 1.50063 10.4108 0.5 10.4108 0.5C10.4108 0.5 9.42917 1.4943 7.68756 2.36827C7.81422 2.67859 7.92822 2.99525 8.02955 3.30557C8.29554 4.10988 8.49186 4.91419 8.63753 5.72483C8.78319 6.53547 8.87818 7.33977 8.92252 8.14408C8.96685 8.94839 8.96685 9.74636 8.92252 10.538C8.88452 11.3296 8.78952 12.1086 8.67552 12.8813C8.54886 13.6539 8.4032 14.4139 8.20687 15.1548C7.90288 16.3645 7.51656 17.5488 7.06058 18.6887C7.07958 18.7014 7.09858 18.7141 7.11758 18.7267C7.93455 17.8338 8.70086 16.9028 9.3975 15.9338C10.5248 14.3632 11.4938 12.7103 12.1777 10.975Z" fill="#009CC5"/>
<path d="M19.4925 3.59701C18.5742 3.67301 17.7129 3.64134 16.9149 3.52734C16.8452 4.42031 16.7059 5.28795 16.5032 6.13659C16.0029 8.23285 15.148 10.1771 14.046 11.9187C13.78 12.3621 13.4823 12.78 13.191 13.198C13.0454 13.407 12.8807 13.6033 12.7287 13.806L12.4944 14.11C12.4184 14.2113 12.3297 14.3063 12.2537 14.4013L11.7661 14.9776C11.6014 15.1676 11.4241 15.3513 11.2531 15.5349C10.9174 15.9086 10.5564 16.2569 10.2018 16.6052C9.33415 17.4475 8.41585 18.2265 7.46588 18.9548C8.32719 19.5501 9.30249 20.0758 10.4108 20.5001C20.9428 16.4786 19.4925 3.59701 19.4925 3.59701Z" fill="#009CC5"/>
<path d="M7.1049 12.8054C7.04157 12.0771 6.95924 11.3552 6.82624 10.6522C6.69325 9.94287 6.53492 9.25256 6.33226 8.57492C6.1296 7.89727 5.88894 7.23863 5.61028 6.61165C5.33163 5.97834 5.0213 5.37036 4.67298 4.80671C4.50199 4.52172 4.31833 4.24939 4.12833 3.99607C4.03334 3.86941 3.93834 3.74908 3.84334 3.63508C3.82434 3.60975 3.79901 3.58441 3.78001 3.55908C3.02637 3.65408 2.22206 3.67308 1.36709 3.60341C1.36709 3.60341 0.239794 13.3628 6.89591 18.5496C7.0669 17.3716 7.1619 16.1873 7.1809 15.0094C7.18723 14.2747 7.15557 13.5338 7.1049 12.8054Z" fill="#009CC5"/>
</svg>
