<svg width="21" height="20" viewBox="0 0 21 20" fill="none" xmlns="http://www.w3.org/2000/svg">
<path d="M10.5 0C11.9583 1.73902e-08 13.399 0.318955 14.721 0.934508C16.043 1.55006 17.2144 2.44731 18.1531 3.56337C19.0917 4.67943 19.775 5.98728 20.1548 7.39525C20.5347 8.80322 20.602 10.2772 20.352 11.714L10.5 10V0Z" fill="#F15959"/>
<path d="M10.5 0C8.58672 -2.28156e-08 6.71361 0.54887 5.10291 1.58148C3.49222 2.61409 2.21156 4.0871 1.4129 5.82571C0.614247 7.56433 0.331118 9.49556 0.597112 11.3903C0.863107 13.285 1.66706 15.0636 2.91357 16.5151C4.16008 17.9666 5.79683 19.03 7.62959 19.5792C9.46235 20.1284 11.4142 20.1403 13.2535 19.6134C15.0928 19.0866 16.7424 18.0432 18.0065 16.607C19.2706 15.1708 20.0962 13.4021 20.3852 11.5108L10.5 10V0Z" fill="#1B4753"/>
</svg>
